<svg id="Layer_1" data-name="Layer 1" xmlns="http://www.w3.org/2000/svg" viewBox="0 0 86.52 56.63">
  <title>aquarius</title>
  <g id="aquarius-g">
    <g id="aquarius-top">
      <path d="M89.26,41.74a4,4,0,0,1-3.38-1.86l-5.46-8.63L65.27,41.1a4,4,0,0,1-3,.55,4.06,4.06,0,0,1-2.53-1.77l-5.45-8.63L39.09,41.1a4,4,0,0,1-5.56-1.22l-5.45-8.63L12.92,41.1a4,4,0,0,1-4.36-6.71L27.12,22.33a4,4,0,0,1,3-.55,3.94,3.94,0,0,1,2.53,1.77l5.45,8.63,15.16-9.85a4,4,0,0,1,3-.55,3.94,3.94,0,0,1,2.52,1.77l5.45,8.63,15.16-9.85a4,4,0,0,1,3-.55A3.94,3.94,0,0,1,85,23.55l7.62,12.06a4,4,0,0,1-3.38,6.13Z" transform="translate(-6.74 -21.68)"/>
    </g>
    <g id="squarius-bot">
      <path d="M89.26,78.32a4,4,0,0,1-3.38-1.87l-5.46-8.63L65.27,77.67a4,4,0,0,1-5.57-1.22l-5.45-8.63L39.09,77.67a4,4,0,0,1-5.56-1.22l-5.45-8.63L12.92,77.67A4,4,0,0,1,8.56,71L27.12,58.9a4,4,0,0,1,5.56,1.22l5.45,8.63L53.29,58.9a4,4,0,0,1,5.56,1.22l5.45,8.63L79.46,58.9A4,4,0,0,1,85,60.12l7.62,12.06a4,4,0,0,1-1.25,5.52A4,4,0,0,1,89.26,78.32Z" transform="translate(-6.74 -21.68)"/>
    </g>
  </g>
</svg>
