<svg id="Layer_1" data-name="Layer 1" xmlns="http://www.w3.org/2000/svg" viewBox="0 0 89.32 82.75">
  <title>aries</title>
  <g id="aries-g">
    <path id="aries-symb" d="M89.31,17.31A17.81,17.81,0,0,1,83.88,30a4,4,0,0,1-5.5-5.81,9.69,9.69,0,0,0,2.93-6.73C81.2,12.61,76.63,8,71.91,8a9.6,9.6,0,0,0-7.72,4l-.32.4c-6.38,7-11,20.54-13.47,39.27a217.79,217.79,0,0,0-1.74,26V78c0,.42,0,.7,0,.82a4.12,4.12,0,0,1-.33,1.54,1.87,1.87,0,0,1-.17.35,5.87,5.87,0,0,1-.39.58l-.08.1-.22.23a3.47,3.47,0,0,1-.29.25,3.16,3.16,0,0,1-.66.44,2.3,2.3,0,0,1-.32.15,2.6,2.6,0,0,1-.36.13,4.16,4.16,0,0,1-1.12.18h-.05a3.83,3.83,0,0,1-1.18-.18,2.6,2.6,0,0,1-.36-.13,1.87,1.87,0,0,1-.32-.15,4.05,4.05,0,0,1-.95-.69l-.22-.23-.08-.1a4.52,4.52,0,0,1-.39-.58c-.06-.12-.12-.23-.17-.35s-.1-.24-.14-.36a4.08,4.08,0,0,1-.17-.77c0-.14,0-.27,0-.41s0-.4,0-.82v-.33A217.61,217.61,0,0,0,38.9,51.59c-2.44-18.68-7.1-32.23-13.46-39.17l-.32-.4A9.6,9.6,0,0,0,17.4,8C12.68,8,8.11,12.61,8,17.5a9.73,9.73,0,0,0,2.94,6.73A4,4,0,0,1,5.42,30C4.49,29.15-.17,24.37,0,17.31.21,8.09,8.35,0,17.4,0A17.72,17.72,0,0,1,31.5,7.19C38.09,14.5,42.15,26,44.66,37.72,47.16,26,51.22,14.5,57.81,7.19A17.72,17.72,0,0,1,71.91,0C81,0,89.1,8.09,89.31,17.31Z"/>
  </g>
</svg>
