<svg xmlns="http://www.w3.org/2000/svg">
    <symbol id="aquarius" viewBox="0 0 86.52 56.63">
        <title>Aquarius</title>
        <path d="M89.26,41.74a4,4,0,0,1-3.38-1.86l-5.46-8.63L65.27,41.1a4,4,0,0,1-3,.55,4.06,4.06,0,0,1-2.53-1.77l-5.45-8.63L39.09,41.1a4,4,0,0,1-5.56-1.22l-5.45-8.63L12.92,41.1a4,4,0,0,1-4.36-6.71L27.12,22.33a4,4,0,0,1,3-.55,3.94,3.94,0,0,1,2.53,1.77l5.45,8.63,15.16-9.85a4,4,0,0,1,3-.55,3.94,3.94,0,0,1,2.52,1.77l5.45,8.63,15.16-9.85a4,4,0,0,1,3-.55A3.94,3.94,0,0,1,85,23.55l7.62,12.06a4,4,0,0,1-3.38,6.13Z" transform="translate(-6.74 -21.68)"/>
        <path d="M89.26,78.32a4,4,0,0,1-3.38-1.87l-5.46-8.63L65.27,77.67a4,4,0,0,1-5.57-1.22l-5.45-8.63L39.09,77.67a4,4,0,0,1-5.56-1.22l-5.45-8.63L12.92,77.67A4,4,0,0,1,8.56,71L27.12,58.9a4,4,0,0,1,5.56,1.22l5.45,8.63L53.29,58.9a4,4,0,0,1,5.56,1.22l5.45,8.63L79.46,58.9A4,4,0,0,1,85,60.12l7.62,12.06a4,4,0,0,1-1.25,5.52A4,4,0,0,1,89.26,78.32Z" transform="translate(-6.74 -21.68)"/>
    </symbol>
    <symbol id="aries" viewBox="0 0 89.32 82.75">
        <title>Aries</title>
        <path d="M89.31,17.31A17.81,17.81,0,0,1,83.88,30a4,4,0,0,1-5.5-5.81,9.69,9.69,0,0,0,2.93-6.73C81.2,12.61,76.63,8,71.91,8a9.6,9.6,0,0,0-7.72,4l-.32.4c-6.38,7-11,20.54-13.47,39.27a217.79,217.79,0,0,0-1.74,26V78c0,.42,0,.7,0,.82a4.12,4.12,0,0,1-.33,1.54,1.87,1.87,0,0,1-.17.35,5.87,5.87,0,0,1-.39.58l-.08.1-.22.23a3.47,3.47,0,0,1-.29.25,3.16,3.16,0,0,1-.66.44,2.3,2.3,0,0,1-.32.15,2.6,2.6,0,0,1-.36.13,4.16,4.16,0,0,1-1.12.18h-.05a3.83,3.83,0,0,1-1.18-.18,2.6,2.6,0,0,1-.36-.13,1.87,1.87,0,0,1-.32-.15,4.05,4.05,0,0,1-.95-.69l-.22-.23-.08-.1a4.52,4.52,0,0,1-.39-.58c-.06-.12-.12-.23-.17-.35s-.1-.24-.14-.36a4.08,4.08,0,0,1-.17-.77c0-.14,0-.27,0-.41s0-.4,0-.82v-.33A217.61,217.61,0,0,0,38.9,51.59c-2.44-18.68-7.1-32.23-13.46-39.17l-.32-.4A9.6,9.6,0,0,0,17.4,8C12.68,8,8.11,12.61,8,17.5a9.73,9.73,0,0,0,2.94,6.73A4,4,0,0,1,5.42,30C4.49,29.15-.17,24.37,0,17.31.21,8.09,8.35,0,17.4,0A17.72,17.72,0,0,1,31.5,7.19C38.09,14.5,42.15,26,44.66,37.72,47.16,26,51.22,14.5,57.81,7.19A17.72,17.72,0,0,1,71.91,0C81,0,89.1,8.09,89.31,17.31Z"/>
    </symbol>
    <symbol id="cancer" viewBox="0 0 95.58 77.37">
        <title>Cancer</title>
        <path id="cancer-symb-bot" d="M75.92,28.35a19.66,19.66,0,0,0-8.18,37.54,75.1,75.1,0,0,1-23.09,3.48c-15.73,0-30.25-4.45-37.92-11.6a4,4,0,0,0-5.46,5.85c9.23,8.61,25.44,13.75,43.38,13.75,19.12,0,35.47-5.78,44.19-14.55,3.89-3.91,6.26-8.42,6.67-13.28,0-.22,0-.45,0-.68s0-.57,0-.85A19.68,19.68,0,0,0,75.92,28.35ZM64.25,48a11.67,11.67,0,0,1,23.33,0c0,.2,0,.4,0,.6s0,.12,0,.18A11.66,11.66,0,0,1,64.25,48Z"/>
        <path d="M94.31,13.76C85.09,5.14,68.87,0,50.93,0,31.76,0,15.37,5.81,6.67,14.62l0,0C2.81,18.53.48,23,.07,27.83c0,.22,0,.45,0,.68s0,.57,0,.85A19.67,19.67,0,1,0,27.82,11.47,75.54,75.54,0,0,1,50.93,8c15.73,0,30.26,4.45,37.92,11.6a4,4,0,1,0,5.46-5.84Zm-63,15.6A11.67,11.67,0,1,1,8,29.36c0-.2,0-.4,0-.6s0-.12,0-.18a11.66,11.66,0,0,1,23.3.78Z"/>
        <path d="M11.64,20.91A13.11,13.11,0,0,0,8,28.58,11.64,11.64,0,0,1,11.64,20.91Z"/>
    </symbol>
    <symbol id="capricorn" viewBox="0 0 79.81 80.54">
        <title>Capricorn</title>
        <path id="capricorn-ssymb" d="M73.31,43.4c-.34,0-.68,0-1,0s-.46,0-.69.06a16.74,16.74,0,0,0-2.45.43,16.32,16.32,0,0,0-4.46,1.89l-.67.43-.61.43-.09.07-.55.43c-.35.29-.7.6-1,.92-.13.12-.25.24-.37.37a1.8,1.8,0,0,0-.19.2l-.43.48a16.92,16.92,0,0,0-4.05,10.22,19.5,19.5,0,0,1-1.22-7.81l0-24.77A16.12,16.12,0,0,0,27.43,16C25,12.89,21,10.25,14.4,9.74a4,4,0,0,0-.62,8c8.75.68,9.46,7.23,9.48,9.06V55.11a4,4,0,0,0,8,0V27.16c0-.07,0-.15,0-.26a.49.49,0,0,0,0-.12,8.13,8.13,0,0,1,16.26,0V51c-.12,1.65-.47,11,5.88,18,.38.42.78.83,1.19,1.21a21.1,21.1,0,0,1-5.17,8.06c-3.22,3-7.27,4.24-12.41,3.9a4,4,0,0,0-.51,8c.69,0,1.37.07,2,.07a23.27,23.27,0,0,0,16.28-6.06,28.12,28.12,0,0,0,6.65-9.63,31.14,31.14,0,0,0,11,2l.85,0a16.61,16.61,0,0,0,0-33.21Zm0,25.21h-.44a8.62,8.62,0,0,1-8.17-8.51V60a8.59,8.59,0,0,1,4.18-7.36,7.17,7.17,0,0,1,1.17-.6l.32-.12a6.28,6.28,0,0,1,.87-.27c.23-.06.46-.1.7-.14a8.83,8.83,0,0,1,1.37-.11,8.61,8.61,0,0,1,0,17.21Z" transform="translate(-10.09 -9.73)"/>
    </symbol>
    <symbol id="gemini" viewBox="0 0 70.8 73.7">
        <title>Gemini</title>
        <path id="gemini-symb" d="M68.29,66a74.15,74.15,0,0,0-11.77-3.58V11.3A76.29,76.29,0,0,0,68.29,7.72a4,4,0,0,0-3-7.43c-8.38,3.37-19,5.22-29.91,5.22S13.87,3.66,5.49.29a4,4,0,0,0-3,7.43A76.29,76.29,0,0,0,14.28,11.3V62.41A74.15,74.15,0,0,0,2.51,66,4,4,0,0,0,4,73.7a4.1,4.1,0,0,0,1.49-.28c8.39-3.37,19-5.23,29.91-5.23s21.52,1.86,29.91,5.23a4,4,0,0,0,3-7.43Zm-46-5V12.69a103.84,103.84,0,0,0,13.12.82,103.84,103.84,0,0,0,13.12-.82V61a104.11,104.11,0,0,0-26.24,0Z"/>
    </symbol>
    <symbol id="leo" viewBox="0 0 66.13 82.5">
        <title>Leo</title>
        <path id="leo-symb" d="M64.63,70.68A4,4,0,0,0,59,71.3s-2.64,3.2-6.4,3.2h-.13C48.47,74.42,44,71,44,66.08c0-4.27.35-5.73,9.43-17.53,9.24-12,8.87-23.64,8.74-25.45a23.25,23.25,0,0,0-46.5,0,27,27,0,0,0,1.08,9.15h-.5a16.24,16.24,0,1,0,14.31,8.58l0-.07-.3-.52a.22.22,0,0,1-.05-.08l-.24-.29a26.57,26.57,0,0,1-2.24-2.89C23.05,30.1,23.6,24,23.63,23.73l0-.47a15.25,15.25,0,1,1,30.5,0l0,.36c0,.4.73,9.87-7.1,20.05C38.09,55.35,36,58.82,36,66.08c0,9.64,8.45,16.27,16.34,16.42h.29c7.48,0,12.14-5.57,12.65-6.22A4,4,0,0,0,64.63,70.68Zm-48.39-14a8.24,8.24,0,1,1,0-16.47,8.24,8.24,0,0,1,0,16.47Z"/>
    </symbol>
    <symbol id="libra" viewBox="0 0 91.5 77.91">
        <title>Libra</title>
        <path id="libra-symb-bot" d="M87.5,77.91H4a4,4,0,0,1,0-8H87.5a4,4,0,0,1,0,8Z"/>
        <path id="libra-symb-top" d="M91.5,48.52a4,4,0,0,1-4,4H56.58A4,4,0,0,1,54.79,45l.33-.18A19.6,19.6,0,1,0,36.71,45a4,4,0,0,1,1.69,5.39,3.94,3.94,0,0,1-3.19,2.13l-.41,0H4a4,4,0,0,1,0-8H24a27.6,27.6,0,1,1,43.6,0h20A4,4,0,0,1,91.5,48.52Z"/>
    </symbol>
    <symbol id="pisces" viewBox="0 0 66.56 73.89">
        <title>Pisces</title>
        <path id="pisces-symb" d="M83.28,50a4,4,0,0,1-4,4H65.15c.95,10.3,5.56,19.78,12.73,25.91A4,4,0,0,1,72.68,86c-8.91-7.62-14.57-19.36-15.57-32H42.89c-1,12.63-6.67,24.37-15.58,32a4,4,0,0,1-5.19-6.08C29.29,73.77,33.9,64.29,34.85,54H20.72a4,4,0,0,1,0-8H34.85c-1-10.29-5.56-19.77-12.73-25.9A4,4,0,0,1,27.32,14c8.91,7.62,14.57,19.36,15.57,32H57.11c1-12.62,6.66-24.36,15.57-32a4,4,0,1,1,5.2,6.08C70.71,26.22,66.1,35.7,65.15,46H79.28A4,4,0,0,1,83.28,50Z" transform="translate(-16.72 -13.06)"/>
    </symbol>
    <symbol id="sagittarius" viewBox="0 0 73.7 73.71">
        <title>Sagittarius</title>
        <path d="M73.7,4.16v.23L72.32,39.07a4,4,0,0,1-4,3.85h-.16a4,4,0,0,1-3.84-4.15l1-24.71L32.13,47.23,46.76,61.86a4,4,0,0,1-5.66,5.66L26.47,52.89,6.83,72.53a4,4,0,0,1-5.66-5.65L20.82,47.23,6.19,32.6A4,4,0,1,1,11.85,27L26.48,41.58,59.65,8.4,35,9.38a4,4,0,1,1-.32-8L69.55,0h.15a2.55,2.55,0,0,1,.39,0,3.68,3.68,0,0,1,.75.14,4,4,0,0,1,1.69,1,4,4,0,0,1,1.17,3Z" transform="translate(0)"/>
        <path d="M73.7,4.16a4,4,0,0,0-.16-1.3A3.81,3.81,0,0,1,73.7,4.16Z" transform="translate(0)"/>
    </symbol>
    <symbol id="scorpio" viewBox="0 0 71.34 80.06">
        <title>Scorpio</title>
        <path id="scorpio-symb" d="M70.76,76.32,62.64,80a1,1,0,0,1-1.39-1.08l.18-1c-9.74-1-13.24-9.57-13.18-15.34l-.11-45.61a3.94,3.94,0,0,1,.07-.77,3.67,3.67,0,0,1-.07-.75A5.57,5.57,0,0,0,42.52,10a5.38,5.38,0,0,0-5.37,5.38A3.72,3.72,0,0,1,37,16.46a3.25,3.25,0,0,1,0,.44l.12,45.66a4,4,0,0,1-4,4h0a4,4,0,0,1-4-4L29,16.92a4.67,4.67,0,0,1,.07-.76A4.67,4.67,0,0,1,29,15.4a5.38,5.38,0,1,0-10.75,0,4.67,4.67,0,0,1-.07.76,26.54,26.54,0,0,1,.21,2.91c.25,13,0,43.22,0,43.53a4,4,0,0,1-4,4h0a4,4,0,0,1-4-4c0-.3.25-30.37,0-43.31C10.24,9.41,3.31,8,3.24,7.93A4,4,0,0,1,4.77.08a16.74,16.74,0,0,1,9.32,6,13.36,13.36,0,0,1,19-.13A13.34,13.34,0,0,1,42.52,2,13.52,13.52,0,0,1,56.14,15.4a3.67,3.67,0,0,1-.07.75,4.54,4.54,0,0,1,.07.75l.11,45.66c0,1.69.52,7.08,6.57,7.4L63,68.71a1,1,0,0,1,1.69-.51l6.33,6.53A1,1,0,0,1,70.76,76.32Z"/>
    </symbol>
    <symbol id="taurus" viewBox="0 0 89.44 78.79">
        <title>Taurus</title>
        <path id="taurus-symb" d="M85.28,0c-.72,0-17.7.89-24.2,16.06C56.76,26.14,45.77,26.37,44.83,26.37h0c-1.14-.06-12.75-1-17.11-11.21C21.14-.17,4.62,0,3.92,0a4,4,0,0,0,.16,8c.12,0,11.81-.11,16.28,10.31A24.89,24.89,0,0,0,31,30.24a26.22,26.22,0,1,0,27.7.2,23.59,23.59,0,0,0,9.71-11.23C72.92,8.73,85.1,8,85.6,8a4,4,0,1,0-.32-8ZM62.93,52.58A18.21,18.21,0,1,1,44.56,34.37h.24A18.23,18.23,0,0,1,62.93,52.58Z"/>
    </symbol>
    <symbol id="virgo" viewBox="0 0 70 83.54">
        <title>Virgo</title>
        <path id="virgo-symb" d="M60.46,76.15c-2.19-1.38-3.23-4.75-3.68-7.8C70.69,56.28,70.2,40.46,69.9,30.91c0-1-.06-2-.07-2.93-.08-6.26-4.48-10.63-10.68-10.63a10.56,10.56,0,0,0-2.59.32V15.79A13.59,13.59,0,0,0,33.13,6.4,13.56,13.56,0,0,0,14.5,6.1,17.18,17.18,0,0,0,4.58,0,4,4,0,1,0,3.41,8s4.46.81,6.78,6.39c.05.11.09.23.14.35l0,.1a3.76,3.76,0,0,0-.24,1.35v.74l-.07,46.47a4,4,0,0,0,4,4h0a4,4,0,0,0,4-4l.07-47.21a3.31,3.31,0,0,0,0-.55v0a5.6,5.6,0,0,1,11.17.57,3.52,3.52,0,0,0,.06.66l-.07,46.28a4,4,0,1,0,8,0l.07-46.83a3.87,3.87,0,0,0,0-.48,5.61,5.61,0,0,1,11.21,0h0l0,10.94v2.1l0,34.06c0,.33,0,1,0,1.81a52.22,52.22,0,0,1-12,6,4,4,0,0,0,1.36,7.77,4.06,4.06,0,0,0,1.36-.24,64.59,64.59,0,0,0,10.52-4.83c1,3.63,3,7.32,6.54,9.54a3.91,3.91,0,0,0,2.12.61,4,4,0,0,0,2.12-7.39Zm-1.31-50.8c2.37,0,2.66,1.56,2.68,2.73,0,1,0,2,.08,3.08.24,7.79.53,17.35-5.41,25.77l0-29.56A2.7,2.7,0,0,1,59.15,25.35Z" transform="translate(0 0)"/>
    </symbol>
</svg>