<svg id="Layer_1" data-name="Layer 1" xmlns="http://www.w3.org/2000/svg" viewBox="0 0 95.58 77.37">
  <title>cancer</title>
  <g id="cancer-g">
    <g id="cancer-g-bot">
      <path id="cancer-symb-bot" d="M75.92,28.35a19.66,19.66,0,0,0-8.18,37.54,75.1,75.1,0,0,1-23.09,3.48c-15.73,0-30.25-4.45-37.92-11.6a4,4,0,0,0-5.46,5.85c9.23,8.61,25.44,13.75,43.38,13.75,19.12,0,35.47-5.78,44.19-14.55,3.89-3.91,6.26-8.42,6.67-13.28,0-.22,0-.45,0-.68s0-.57,0-.85A19.68,19.68,0,0,0,75.92,28.35ZM64.25,48a11.67,11.67,0,0,1,23.33,0c0,.2,0,.4,0,.6s0,.12,0,.18A11.66,11.66,0,0,1,64.25,48Z"/>
    </g>
    <g id="cancer-g-top">
      <g id="cancer-symb-top">
        <path d="M94.31,13.76C85.09,5.14,68.87,0,50.93,0,31.76,0,15.37,5.81,6.67,14.62l0,0C2.81,18.53.48,23,.07,27.83c0,.22,0,.45,0,.68s0,.57,0,.85A19.67,19.67,0,1,0,27.82,11.47,75.54,75.54,0,0,1,50.93,8c15.73,0,30.26,4.45,37.92,11.6a4,4,0,1,0,5.46-5.84Zm-63,15.6A11.67,11.67,0,1,1,8,29.36c0-.2,0-.4,0-.6s0-.12,0-.18a11.66,11.66,0,0,1,23.3.78Z"/>
        <path d="M11.64,20.91A13.11,13.11,0,0,0,8,28.58,11.64,11.64,0,0,1,11.64,20.91Z"/>
      </g>
    </g>
  </g>
</svg>
