<svg id="Layer_1" data-name="Layer 1" xmlns="http://www.w3.org/2000/svg" viewBox="0 0 66.13 82.5">
  <title>leo</title>
  <g id="leo-g">
    <path id="leo-symb" d="M64.63,70.68A4,4,0,0,0,59,71.3s-2.64,3.2-6.4,3.2h-.13C48.47,74.42,44,71,44,66.08c0-4.27.35-5.73,9.43-17.53,9.24-12,8.87-23.64,8.74-25.45a23.25,23.25,0,0,0-46.5,0,27,27,0,0,0,1.08,9.15h-.5a16.24,16.24,0,1,0,14.31,8.58l0-.07-.3-.52a.22.22,0,0,1-.05-.08l-.24-.29a26.57,26.57,0,0,1-2.24-2.89C23.05,30.1,23.6,24,23.63,23.73l0-.47a15.25,15.25,0,1,1,30.5,0l0,.36c0,.4.73,9.87-7.1,20.05C38.09,55.35,36,58.82,36,66.08c0,9.64,8.45,16.27,16.34,16.42h.29c7.48,0,12.14-5.57,12.65-6.22A4,4,0,0,0,64.63,70.68Zm-48.39-14a8.24,8.24,0,1,1,0-16.47,8.24,8.24,0,0,1,0,16.47Z"/>
  </g>
</svg>
