<svg id="Layer_1" data-name="Layer 1" xmlns="http://www.w3.org/2000/svg" viewBox="0 0 73.7 73.71">
  <title>sagittarius</title>
  <g id="sagittarius-g">
    <g id="sagittarius-symb">
      <path d="M73.7,4.16v.23L72.32,39.07a4,4,0,0,1-4,3.85h-.16a4,4,0,0,1-3.84-4.15l1-24.71L32.13,47.23,46.76,61.86a4,4,0,0,1-5.66,5.66L26.47,52.89,6.83,72.53a4,4,0,0,1-5.66-5.65L20.82,47.23,6.19,32.6A4,4,0,1,1,11.85,27L26.48,41.58,59.65,8.4,35,9.38a4,4,0,1,1-.32-8L69.55,0h.15a2.55,2.55,0,0,1,.39,0,3.68,3.68,0,0,1,.75.14,4,4,0,0,1,1.69,1,4,4,0,0,1,1.17,3Z" transform="translate(0)"/>
      <path d="M73.7,4.16a4,4,0,0,0-.16-1.3A3.81,3.81,0,0,1,73.7,4.16Z" transform="translate(0)"/>
    </g>
  </g>
</svg>
