<svg id="Layer_1" data-name="Layer 1" xmlns="http://www.w3.org/2000/svg" viewBox="0 0 70 83.54">
  <title>virgo</title>
  <g id="virgo-g">
    <path id="virgo-symb" d="M60.46,76.15c-2.19-1.38-3.23-4.75-3.68-7.8C70.69,56.28,70.2,40.46,69.9,30.91c0-1-.06-2-.07-2.93-.08-6.26-4.48-10.63-10.68-10.63a10.56,10.56,0,0,0-2.59.32V15.79A13.59,13.59,0,0,0,33.13,6.4,13.56,13.56,0,0,0,14.5,6.1,17.18,17.18,0,0,0,4.58,0,4,4,0,1,0,3.41,8s4.46.81,6.78,6.39c.05.11.09.23.14.35l0,.1a3.76,3.76,0,0,0-.24,1.35v.74l-.07,46.47a4,4,0,0,0,4,4h0a4,4,0,0,0,4-4l.07-47.21a3.31,3.31,0,0,0,0-.55v0a5.6,5.6,0,0,1,11.17.57,3.52,3.52,0,0,0,.06.66l-.07,46.28a4,4,0,1,0,8,0l.07-46.83a3.87,3.87,0,0,0,0-.48,5.61,5.61,0,0,1,11.21,0h0l0,10.94v2.1l0,34.06c0,.33,0,1,0,1.81a52.22,52.22,0,0,1-12,6,4,4,0,0,0,1.36,7.77,4.06,4.06,0,0,0,1.36-.24,64.59,64.59,0,0,0,10.52-4.83c1,3.63,3,7.32,6.54,9.54a3.91,3.91,0,0,0,2.12.61,4,4,0,0,0,2.12-7.39Zm-1.31-50.8c2.37,0,2.66,1.56,2.68,2.73,0,1,0,2,.08,3.08.24,7.79.53,17.35-5.41,25.77l0-29.56A2.7,2.7,0,0,1,59.15,25.35Z" transform="translate(0 0)"/>
  </g>
</svg>
